<?xml version="1.0" standalone="yes"?>

<svg version="1.1" viewBox="0.0 0.0 960.0 720.0" fill="none" stroke="none" stroke-linecap="square" stroke-miterlimit="10" xmlns="http://www.w3.org/2000/svg" xmlns:xlink="http://www.w3.org/1999/xlink"><clipPath id="p.0"><path d="m0 0l960.0 0l0 720.0l-960.0 0l0 -720.0z" clip-rule="nonzero"></path></clipPath><g clip-path="url(#p.0)"><path fill="#000000" fill-opacity="0.0" d="m0 0l960.0 0l0 720.0l-960.0 0z" fill-rule="nonzero"></path><path fill="#cfe2f3" d="m578.6772 579.1181l0 0c0 -31.588928 25.60791 -57.19684 57.19684 -57.19684l0 0c15.169556 0 29.717773 6.026062 40.444275 16.752563c10.726501 10.726501 16.752563 25.27472 16.752563 40.444275l0 0c0 31.588928 -25.60791 57.19684 -57.19684 57.19684l0 0c-31.588928 0 -57.19684 -25.60791 -57.19684 -57.19684z" fill-rule="nonzero"></path><path stroke="#000000" stroke-width="2.0" stroke-linejoin="round" stroke-linecap="butt" d="m578.6772 579.1181l0 0c0 -31.588928 25.60791 -57.19684 57.19684 -57.19684l0 0c15.169556 0 29.717773 6.026062 40.444275 16.752563c10.726501 10.726501 16.752563 25.27472 16.752563 40.444275l0 0c0 31.588928 -25.60791 57.19684 -57.19684 57.19684l0 0c-31.588928 0 -57.19684 -25.60791 -57.19684 -57.19684z" fill-rule="nonzero"></path><path fill="#cfe2f3" d="m543.65356 317.32285l0 0c0 -31.588959 25.60791 -57.19687 57.19684 -57.19687l0 0c15.169556 0 29.717773 6.0260925 40.444275 16.752563c10.726501 10.726501 16.752563 25.27475 16.752563 40.444305l0 0c0 31.588928 -25.60791 57.19684 -57.19684 57.19684l0 0c-31.588928 0 -57.19684 -25.60791 -57.19684 -57.19684z" fill-rule="nonzero"></path><path stroke="#000000" stroke-width="2.0" stroke-linejoin="round" stroke-linecap="butt" d="m543.65356 317.32285l0 0c0 -31.588959 25.60791 -57.19687 57.19684 -57.19687l0 0c15.169556 0 29.717773 6.0260925 40.444275 16.752563c10.726501 10.726501 16.752563 25.27475 16.752563 40.444305l0 0c0 31.588928 -25.60791 57.19684 -57.19684 57.19684l0 0c-31.588928 0 -57.19684 -25.60791 -57.19684 -57.19684z" fill-rule="nonzero"></path><path fill="#cfe2f3" d="m345.6378 129.22835l0 0c0 -31.588951 25.60791 -57.196854 57.19687 -57.196854l0 0c15.169525 0 29.717773 6.026085 40.444275 16.752571c10.726471 10.726494 16.752563 25.274734 16.752563 40.444283l0 0c0 31.588943 -25.60791 57.196854 -57.19684 57.196854l0 0c-31.588959 0 -57.19687 -25.60791 -57.19687 -57.196854z" fill-rule="nonzero"></path><path stroke="#000000" stroke-width="2.0" stroke-linejoin="round" stroke-linecap="butt" d="m345.6378 129.22835l0 0c0 -31.588951 25.60791 -57.196854 57.19687 -57.196854l0 0c15.169525 0 29.717773 6.026085 40.444275 16.752571c10.726471 10.726494 16.752563 25.274734 16.752563 40.444283l0 0c0 31.588943 -25.60791 57.196854 -57.19684 57.196854l0 0c-31.588959 0 -57.19687 -25.60791 -57.19687 -57.196854z" fill-rule="nonzero"></path><path fill="#000000" d="m408.88153 152.16835l-5.625 0l0 -35.84375q-2.03125 1.9375 -5.328125 3.875q-3.296875 1.9375 -5.921875 2.90625l0 -5.4375q4.71875 -2.21875 8.25 -5.375q3.53125 -3.15625 5.0 -6.125l3.625 0l0 46.0z" fill-rule="nonzero"></path><path fill="#000000" fill-opacity="0.0" d="m595.42975 538.6738c0 -59.80887 -48.149597 -75.58621 -96.299225 -119.61774c-48.149597 -44.031494 -96.299225 -116.31711 -96.299225 -232.63423" fill-rule="nonzero"></path><path stroke="#000000" stroke-width="8.0" stroke-linejoin="round" stroke-linecap="butt" d="m595.42975 538.6738c0 -59.80887 -48.149597 -75.58621 -96.299225 -119.61774c-48.149597 -44.031494 -96.299225 -116.31711 -96.299225 -232.63423" fill-rule="nonzero"></path><path fill="#000000" fill-opacity="0.0" d="m600.8504 260.12598c0 -65.44881 -70.409485 -130.89763 -140.81891 -130.89763" fill-rule="nonzero"></path><path stroke="#000000" stroke-width="8.0" stroke-linejoin="round" stroke-linecap="butt" stroke-dasharray="32.0,24.0" d="m600.8504 260.12598c0 -65.44881 -70.409485 -130.89763 -140.81891 -130.89763" fill-rule="nonzero"></path><path fill="#000000" fill-opacity="0.0" d="m600.8504 374.51968c0 36.850403 8.75592 55.275604 17.51178 73.700775c8.75592 18.425201 17.51184 36.850403 17.51184 73.700806" fill-rule="nonzero"></path><path stroke="#000000" stroke-width="8.0" stroke-linejoin="round" stroke-linecap="butt" stroke-dasharray="32.0,24.0" d="m600.8504 374.51968c0 36.850403 8.75592 55.275604 17.51178 73.700775c8.75592 18.425201 17.51184 36.850403 17.51184 73.700806" fill-rule="nonzero"></path><path fill="#000000" fill-opacity="0.0" d="m667.5591 217.79527l-143.14966 199.84251" fill-rule="nonzero"></path><path stroke="#cc4125" stroke-width="8.0" stroke-linejoin="round" stroke-linecap="butt" d="m667.5591 217.79527l-143.14966 199.84251" fill-rule="nonzero"></path><path fill="#000000" fill-opacity="0.0" d="m490.3937 243.30708l214.01572 141.73228" fill-rule="nonzero"></path><path stroke="#cc4125" stroke-width="8.0" stroke-linejoin="round" stroke-linecap="butt" d="m490.3937 243.30708l214.01572 141.73228" fill-rule="nonzero"></path></g></svg>

